<?xml version="1.0" standalone="no"?>
<!DOCTYPE svg PUBLIC "-//W3C//DTD SVG 20010904//EN"
 "http://www.w3.org/TR/2001/REC-SVG-20010904/DTD/svg10.dtd">
<svg version="1.0" xmlns="http://www.w3.org/2000/svg"
 width="885.000000pt" height="686.000000pt" viewBox="0 0 885.000000 686.000000"
 preserveAspectRatio="xMidYMid meet">

<g transform="translate(0.000000,686.000000) scale(0.100000,-0.100000)"
fill="#FFFFFF" stroke="none" opacity="0.3">
<path d="M135 6838 c-36 -32 -76 -147 -82 -238 -4 -60 -1 -88 17 -139 76 -224
300 -387 920 -666 542 -244 686 -318 900 -459 106 -70 161 -115 255 -210 170
-172 238 -295 272 -493 49 -289 -80 -584 -358 -819 -225 -191 -480 -337 -1029
-589 -359 -165 -543 -256 -675 -336 l-115 -69 -103 0 c-88 0 -106 -3 -120 -18
-16 -17 -17 -128 -17 -1394 0 -1319 1 -1376 18 -1391 17 -15 60 -17 409 -17
365 0 391 1 406 18 16 17 17 112 17 1163 l0 1145 57 18 c232 73 618 234 909
380 484 244 863 501 1157 786 268 259 429 505 499 763 31 112 33 335 3 447
-10 41 -18 78 -17 83 1 4 -5 7 -13 7 -18 0 -29 21 -45 88 -25 105 -184 326
-370 512 -334 335 -786 643 -1385 945 -487 245 -955 424 -1270 485 -143 27
-206 27 -240 -2z"/>
<path d="M4113 6690 c-17 -10 -37 -28 -42 -39 -8 -14 -11 -978 -11 -3223 0
-2887 2 -3206 16 -3226 35 -50 49 -52 404 -52 355 0 369 2 404 52 14 20 16
339 16 3228 0 2889 -2 3208 -16 3228 -35 50 -49 52 -406 52 -312 0 -335 -1
-365 -20z"/>
<path d="M8042 6676 l-37 -34 -3 -3194 c-2 -2373 1 -3200 9 -3221 6 -15 25
-39 41 -52 l30 -25 340 0 c372 0 376 1 412 60 15 26 16 283 16 3215 0 3502 5
3230 -59 3268 -26 15 -67 17 -370 17 l-341 0 -38 -34z"/>
<path d="M5545 5114 c-30 -16 -309 -316 -332 -357 -15 -26 -16 -77 -4 -109 9
-24 1035 -1187 1120 -1270 l48 -46 73 0 c70 0 74 1 111 36 21 21 263 307 539
636 367 440 501 608 506 632 13 70 0 89 -180 271 -162 164 -173 173 -209 173
-21 0 -47 -4 -57 -10 -10 -5 -174 -197 -365 -425 -191 -228 -351 -415 -355
-415 -4 0 -174 188 -378 418 -203 229 -383 429 -399 444 -37 35 -79 43 -118
22z"/>
</g>
</svg>
