<?xml version="1.0" standalone="no"?>
<!DOCTYPE svg PUBLIC "-//W3C//DTD SVG 20010904//EN"
 "http://www.w3.org/TR/2001/REC-SVG-20010904/DTD/svg10.dtd">
<svg version="1.0" xmlns="http://www.w3.org/2000/svg"
 width="512.000000pt" height="512.000000pt" viewBox="0 0 512.000000 512.000000"
 preserveAspectRatio="xMidYMid meet">

<g transform="translate(0.000000,512.000000) scale(0.100000,-0.100000)"
fill="#000000" stroke="none">
<path d="M1166 4784 c-170 -41 -306 -177 -351 -351 -13 -50 -15 -280 -15
-1735 0 -1186 3 -1693 11 -1730 30 -145 129 -271 265 -335 78 -38 80 -38 204
-38 119 0 128 1 190 31 36 17 102 59 148 94 88 67 139 83 193 62 15 -6 130
-93 255 -193 126 -101 253 -195 284 -211 75 -38 150 -51 245 -45 137 8 181 33
451 248 150 120 251 193 276 201 54 16 101 -1 185 -65 92 -72 116 -86 180
-108 262 -90 547 64 619 336 11 40 14 277 14 1233 l0 1182 -508 0 c-548 0
-566 1 -671 55 -71 35 -163 125 -199 193 -61 114 -62 125 -62 684 l0 508 -827
-1 c-679 -1 -839 -3 -887 -15z m1152 -1614 c18 -11 41 -34 52 -52 24 -39 27
-117 6 -156 -8 -15 -62 -74 -120 -132 l-106 -105 634 -5 c621 -5 635 -5 662
-26 53 -39 69 -71 69 -134 0 -63 -16 -95 -69 -134 -27 -21 -37 -21 -864 -24
-569 -2 -849 0 -874 8 -45 13 -95 68 -104 115 -16 85 -12 91 264 369 141 142
271 267 287 277 41 26 120 25 163 -1z m1105 -1104 c69 -28 107 -104 92 -183
-6 -33 -44 -76 -268 -301 -144 -145 -274 -270 -289 -278 -15 -8 -49 -14 -75
-14 -90 0 -153 63 -153 153 0 27 5 58 11 70 6 12 61 73 122 135 l112 112 -623
0 c-681 0 -664 -1 -715 59 -66 79 -36 206 58 247 45 20 1681 20 1728 0z"/>
<path d="M3202 4281 c3 -487 4 -500 24 -527 11 -15 33 -37 48 -48 27 -20 40
-21 527 -24 366 -2 499 0 499 9 0 6 -16 41 -35 78 -31 58 -94 125 -478 508
-402 400 -448 443 -508 472 -37 17 -70 31 -73 31 -4 0 -5 -225 -4 -499z"/>
</g>
</svg>
